<mxfile host="app.diagrams.net" modified="2021-11-24T06:15:25.951Z" agent="5.0 (X11)" etag="0axCVbS7LHuDe79ZpGKw" version="15.8.2" type="github">
  <diagram id="5yoc-NYp9CJehfbE5tVS" name="Page-1">
    <mxGraphModel dx="1350" dy="793" grid="1" gridSize="10" guides="1" tooltips="1" connect="1" arrows="1" fold="1" page="1" pageScale="1" pageWidth="850" pageHeight="1100" math="1" shadow="0">
      <root>
        <mxCell id="0" />
        <mxCell id="1" parent="0" />
        <mxCell id="tRbGYyEuUp6FiMF7q_Kd-1" value="&lt;div&gt;&lt;font style=&quot;font-size: 24px&quot;&gt;&lt;b&gt;$$\mathcal{M}$$&lt;/b&gt;&lt;/font&gt;&lt;/div&gt;" style="text;html=1;align=center;verticalAlign=middle;resizable=0;points=[];autosize=1;strokeColor=none;fillColor=none;" vertex="1" parent="1">
          <mxGeometry x="170" y="260" width="200" height="20" as="geometry" />
        </mxCell>
        <mxCell id="tRbGYyEuUp6FiMF7q_Kd-2" value="&lt;font style=&quot;font-size: 24px&quot;&gt;&lt;b&gt;+&lt;/b&gt;&lt;/font&gt;" style="text;html=1;align=center;verticalAlign=middle;resizable=0;points=[];autosize=1;strokeColor=none;fillColor=none;" vertex="1" parent="1">
          <mxGeometry x="305" y="260" width="30" height="20" as="geometry" />
        </mxCell>
        <mxCell id="tRbGYyEuUp6FiMF7q_Kd-3" value="&lt;font style=&quot;font-size: 24px&quot;&gt;&lt;b&gt;u&lt;/b&gt;&lt;/font&gt;" style="text;html=1;align=center;verticalAlign=middle;resizable=0;points=[];autosize=1;strokeColor=none;fillColor=none;fontSize=18;" vertex="1" parent="1">
          <mxGeometry x="355" y="255" width="30" height="30" as="geometry" />
        </mxCell>
        <mxCell id="tRbGYyEuUp6FiMF7q_Kd-4" value="&lt;b&gt;&lt;font style=&quot;font-size: 24px&quot;&gt;$$\models$$&lt;/font&gt;&lt;/b&gt;" style="text;html=1;align=center;verticalAlign=middle;resizable=0;points=[];autosize=1;strokeColor=none;fillColor=none;fontSize=18;" vertex="1" parent="1">
          <mxGeometry x="335" y="255" width="160" height="30" as="geometry" />
        </mxCell>
        <mxCell id="tRbGYyEuUp6FiMF7q_Kd-5" value="&lt;font style=&quot;font-size: 24px&quot;&gt;&lt;b&gt;$$\phi$$&lt;/b&gt;&lt;/font&gt;" style="text;html=1;align=center;verticalAlign=middle;resizable=0;points=[];autosize=1;strokeColor=none;fillColor=none;fontSize=18;" vertex="1" parent="1">
          <mxGeometry x="410" y="255" width="110" height="30" as="geometry" />
        </mxCell>
        <mxCell id="tRbGYyEuUp6FiMF7q_Kd-6" value="Model" style="text;html=1;align=center;verticalAlign=middle;resizable=0;points=[];autosize=1;strokeColor=none;fillColor=none;fontSize=24;" vertex="1" parent="1">
          <mxGeometry x="210" y="305" width="80" height="30" as="geometry" />
        </mxCell>
        <mxCell id="tRbGYyEuUp6FiMF7q_Kd-7" value="input" style="text;html=1;align=center;verticalAlign=middle;resizable=0;points=[];autosize=1;strokeColor=none;fillColor=none;fontSize=24;" vertex="1" parent="1">
          <mxGeometry x="330" y="305" width="70" height="30" as="geometry" />
        </mxCell>
        <mxCell id="tRbGYyEuUp6FiMF7q_Kd-8" value="specification" style="text;html=1;align=center;verticalAlign=middle;resizable=0;points=[];autosize=1;strokeColor=none;fillColor=none;fontSize=24;" vertex="1" parent="1">
          <mxGeometry x="425" y="305" width="150" height="30" as="geometry" />
        </mxCell>
      </root>
    </mxGraphModel>
  </diagram>
</mxfile>
